[Header]
FileType HTR
DataType HTRS
FileVersion 1
NumSegments 48
NumFrames 3
DataFrameRate 30
EulerRotationOrder ZYX
CalibrationUnits mm
RotationUnits Degrees
GlobalAxisofGravity Y
BoneLengthAxis Y
ScaleFactor 1.0
[SegmentNames&Hierarchy]
Wolf	GLOBAL
Becken	Wolf
Bauch	Becken
Bauch_001	Bauch
Brust	Bauch_001
Hals	Brust
Kopf_002	Hals
Kopf	Kopf_002
Unterkiefer	Kopf
Hals_fett	Unterkiefer
Maulunten	Unterkiefer
Mauloben	Kopf
MundW_L	Kopf
MundW_R	Kopf
Augen_con	Kopf
IK_Aug_R	Augen_con
IK_Aug_L	Augen_con
Aug_R	Kopf
aug_L	Kopf
Ohr_L	Kopf
Ohr_R	Kopf
Braun_O_L	Kopf
Braun_O_R	Kopf
aug_lied_O_L	Kopf
aug_lied_O_R	Kopf
aug_lied_U_L	Kopf
aug_lied_U_R	Kopf
Bauch_003	Brust
Schalterplatte_L	Bauch_003
Oberarm_L	Schalterplatte_L
Unterarm_L	Oberarm_L
Vorderpfote_L	Unterarm_L
Schalterplatte_R	Bauch_003
Oberarm_R	Schalterplatte_R
Unterarm_R	Oberarm_R
Vorderpfote_R	Unterarm_R
Schwanz	Becken
Schwanz_001	Schwanz
Schwanz_002	Schwanz_001
Schwanz_003	Schwanz_002
Oberschenkel_L	Becken
Unterschenkel_L	Oberschenkel_L
Pfote1_L	Unterschenkel_L
Pfote2_L	Pfote1_L
Oberschenkel_R	Becken
Unterschenkel_R	Oberschenkel_R
Pfote1_R	Unterschenkel_R
Pfote2_R	Pfote1_R
[BasePosition]
Wolf	0	0	0	0	0	0	1
Becken	0	0	0	0	0	0	1
Bauch	0	0	0	0	0	0	1
Bauch_001	0	0	0	0	0	0	1
Brust	0	0	0	0	0	0	1
Hals	0	0	0	0	0	0	1
Kopf_002	0	0	0	0	0	0	1
Kopf	0	0	0	0	0	0	1
Unterkiefer	0	0	0	0	0	0	1
Hals_fett	0	0	0	0	0	0	1
Maulunten	0	0	0	0	0	0	1
Mauloben	0	0	0	0	0	0	1
MundW_L	0	0	0	0	0	0	1
MundW_R	0	0	0	0	0	0	1
Augen_con	0	0	0	0	0	0	1
IK_Aug_R	0	0	0	0	0	0	1
IK_Aug_L	0	0	0	0	0	0	1
Aug_R	0	0	0	0	0	0	1
aug_L	0	0	0	0	0	0	1
Ohr_L	0	0	0	0	0	0	1
Ohr_R	0	0	0	0	0	0	1
Braun_O_L	0	0	0	0	0	0	1
Braun_O_R	0	0	0	0	0	0	1
aug_lied_O_L	0	0	0	0	0	0	1
aug_lied_O_R	0	0	0	0	0	0	1
aug_lied_U_L	0	0	0	0	0	0	1
aug_lied_U_R	0	0	0	0	0	0	1
Bauch_003	0	0	0	0	0	0	1
Schalterplatte_L	0	0	0	0	0	0	1
Oberarm_L	0	0	0	0	0	0	1
Unterarm_L	0	0	0	0	0	0	1
Vorderpfote_L	0	0	0	0	0	0	1
Schalterplatte_R	0	0	0	0	0	0	1
Oberarm_R	0	0	0	0	0	0	1
Unterarm_R	0	0	0	0	0	0	1
Vorderpfote_R	0	0	0	0	0	0	1
Schwanz	0	0	0	0	0	0	1
Schwanz_001	0	0	0	0	0	0	1
Schwanz_002	0	0	0	0	0	0	1
Schwanz_003	0	0	0	0	0	0	1
Oberschenkel_L	0	0	0	0	0	0	1
Unterschenkel_L	0	0	0	0	0	0	1
Pfote1_L	0	0	0	0	0	0	1
Pfote2_L	0	0	0	0	0	0	1
Oberschenkel_R	0	0	0	0	0	0	1
Unterschenkel_R	0	0	0	0	0	0	1
Pfote1_R	0	0	0	0	0	0	1
Pfote2_R	0	0	0	0	0	0	1
[Wolf]
31	0	0	0	-90	-0	0	1.0
32	0	0	0	-90	-0	0	1.0
33	0	0	0	-90	-0	0	1.0
[Becken]
31	0	0.5621799231	0.4713867903	1.608920693	169.385376	90.57841492	1.0
32	0	0.5621799231	0.4883921146	1.434251785	169.3837585	90.51563263	1.0
33	0	0.5621799231	0.505397439	1.234531045	169.3821564	90.44384766	1.0
[Bauch]
31	0.9404072165	7.335228958e-08	-0.3559131622	-9.70548399e-07	12.60522652	-8.885302805e-08	1.0
32	0.9404072165	7.335228958e-08	-0.3559131622	-9.70548399e-07	12.60522652	-8.885302805e-08	1.0
33	0.9404072165	7.335228958e-08	-0.3559131622	-9.70548399e-07	12.60522652	-8.885302805e-08	1.0
[Bauch_001]
31	1.081897616	8.323696221e-08	1.180524034e-08	-2.503413032e-09	2.360082865	-2.670307531e-08	1.0
32	1.081897616	8.323696221e-08	1.180524034e-08	-2.503413032e-09	2.360082865	-2.670307531e-08	1.0
33	1.081897616	8.323696221e-08	1.180524034e-08	-2.503413032e-09	2.360082865	-2.670307531e-08	1.0
[Brust]
31	1.069831252	8.440110832e-08	3.139576066e-08	5.110827715e-06	12.80986881	-3.549572648e-05	1.0
32	1.069831252	8.440110832e-08	3.139576066e-08	5.110827715e-06	13.53448868	-3.549572648e-05	1.0
33	1.069831252	8.440110832e-08	3.139576066e-08	5.110827715e-06	14.21934223	-3.549572648e-05	1.0
[Hals]
31	1.258022308	9.662471712e-08	0.6079561114	-4.810633527e-06	46.87745667	-2.341890877e-06	1.0
32	1.258022308	9.662471712e-08	0.6079561114	-4.810633527e-06	46.87745667	-2.341890877e-06	1.0
33	1.258022308	9.662471712e-08	0.6079561114	-4.810633527e-06	46.87745667	-2.341890877e-06	1.0
[Kopf_002]
31	1.752595186	3.012712114e-05	0.265181601	0.006653386634	-165.1497192	0.002557684667	1.0
32	1.752595186	3.012712114e-05	0.265181601	0.006653386634	-165.1497192	0.002557684667	1.0
33	1.752595186	3.012712114e-05	0.265181601	0.006653386634	-165.1497192	0.002557684667	1.0
[Kopf]
31	1.015782118	6.868503988e-08	-5.515175872e-08	0.06489712745	119.1342392	-0.02932483703	1.0
32	1.015782118	6.868503988e-08	-5.515175872e-08	0.06324597448	117.6843338	-0.03079151548	1.0
33	1.015782118	6.868503988e-08	-5.515175872e-08	0.06159481779	116.3141785	-0.03225819394	1.0
[Unterkiefer]
31	0.6370447874	0.004552732222	0.4060618579	5.412721634	-68.3888092	-3.093543291	1.0
32	0.6370447874	0.004552732222	0.4060618579	5.412721634	-68.3888092	-3.093543291	1.0
33	0.6370447874	0.004552732222	0.4060618579	5.412721634	-68.3888092	-3.093543291	1.0
[Hals_fett]
31	0.2998305857	0.007747137919	0.1206372604	-5.071650982	-59.35961151	5.585564613	1.0
32	0.2998305857	0.007747137919	0.1206372604	-5.071650982	-59.35961151	5.585564613	1.0
33	0.2998305857	0.007747137919	0.1206372604	-5.071650982	-59.35961151	5.585564613	1.0
[Maulunten]
31	0.0831861794	-0.007747565862	-0.1206544712	-3.322209358	38.97271347	-0.8718761206	1.0
32	0.0831861794	-0.007747565862	-0.1206544712	-3.322209358	38.97271347	-0.8718761206	1.0
33	0.0831861794	-0.007747565862	-0.1206544712	-3.322209358	38.97271347	-0.8718761206	1.0
[Mauloben]
31	0.9101490974	0.0004056713078	0.4003697634	-0.1032672822	-28.7776947	0.03543138877	1.0
32	0.9101490974	0.0004056713078	0.4003697634	-0.1032672822	-28.7776947	0.03543138877	1.0
33	0.9101490974	0.0004056713078	0.4003697634	-0.1032672822	-28.7776947	0.03543138877	1.0
[MundW_L]
31	0.673060894	-0.3618555963	0.3751283586	-179.8370972	-17.94885063	24.713974	1.0
32	0.673060894	-0.3618555963	0.3751283586	-179.8370972	-17.94885063	24.713974	1.0
33	0.673060894	-0.3618555963	0.3751283586	-179.8370972	-17.94885063	24.713974	1.0
[MundW_R]
31	0.6732419133	0.3627035022	0.3739836514	179.665329	-18.02427101	-24.69083595	1.0
32	0.6732419133	0.3627035022	0.3739836514	179.665329	-18.02427101	-24.69083595	1.0
33	0.6732419133	0.3627035022	0.3739836514	179.665329	-18.02427101	-24.69083595	1.0
[Augen_con]
31	1.807373166	-0.0001604110003	0.183581531	0.0982221961	157.1545258	0.02385941334	1.0
32	1.807373166	-0.0001604110003	0.183581531	0.0982221961	157.1545258	0.02385941334	1.0
33	1.807373166	-0.0001604110003	0.183581531	0.0982221961	157.1545258	0.02385941334	1.0
[IK_Aug_R]
31	0.3461295962	0.2943200469	-1.071020961e-07	-0.4194760025	-4.963055134	165.6946411	1.0
32	0.3461295962	0.2943200469	-1.071020961e-07	-0.4194760025	-4.963055134	165.6946411	1.0
33	0.3461295962	0.2943200469	-1.071020961e-07	-0.4194760025	-4.963055134	165.6946411	1.0
[IK_Aug_L]
31	0.3461301029	-0.2943200171	-1.967418939e-07	0.4194771945	-4.963055134	-165.6946411	1.0
32	0.3461301029	-0.2943200171	-1.967418939e-07	0.4194771945	-4.963055134	-165.6946411	1.0
33	0.3461301029	-0.2943200171	-1.967418939e-07	0.4194771945	-4.963055134	-165.6946411	1.0
[Aug_R]
31	1.035154939	0.2207805216	-0.09605780989	176.004776	-17.29167175	12.85548782	1.0
32	1.035154939	0.2207805216	-0.09605780989	176.004776	-17.29167175	12.85548782	1.0
33	1.035154939	0.2207805216	-0.09605780989	176.004776	-17.29167175	12.85548782	1.0
[aug_L]
31	1.03504467	-0.2215988934	-0.09535907209	-176.1891022	-17.33180046	-12.83102131	1.0
32	1.03504467	-0.2215988934	-0.09535907209	-176.1891022	-17.33180046	-12.83102131	1.0
33	1.03504467	-0.2215988934	-0.09535907209	-176.1891022	-17.33180046	-12.83102131	1.0
[Ohr_L]
31	0.6407766938	-0.3659991026	-0.6893324852	-24.34923935	53.07765961	-15.02013397	1.0
32	0.6407766938	-0.3659991026	-0.6893324852	-24.34923935	53.07765961	-15.02013397	1.0
33	0.6407766938	-0.3659991026	-0.6893324852	-24.34923935	53.07765961	-15.02013397	1.0
[Ohr_R]
31	0.640958488	0.36349985	-0.690484941	24.05785561	53.12415695	14.75856686	1.0
32	0.640958488	0.36349985	-0.690484941	24.05785561	53.12415695	14.75856686	1.0
33	0.640958488	0.36349985	-0.690484941	24.05785561	53.12415695	14.75856686	1.0
[Braun_O_L]
31	0.9801894426	-0.3706049323	-0.3292509615	-143.317215	-34.69636154	52.39493942	1.0
32	0.9801894426	-0.3706049323	-0.3292509615	-143.317215	-34.69636154	52.39493942	1.0
33	0.9801894426	-0.3706049323	-0.3292509615	-143.317215	-34.69636154	52.39493942	1.0
[Braun_O_R]
31	0.9803640842	0.3690741956	-0.3304226995	143.1826782	-34.83971405	-52.34676361	1.0
32	0.9803640842	0.3690741956	-0.3304226995	143.1826782	-34.83971405	-52.34676361	1.0
33	0.9803640842	0.3690741956	-0.3304226995	143.1826782	-34.83971405	-52.34676361	1.0
[aug_lied_O_L]
31	1.038882375	-0.3271433413	-0.1608109176	-175.8613434	-20.15596771	60.31667709	1.0
32	1.038882375	-0.3271433413	-0.1608109176	-175.8613434	-20.15596771	60.31667709	1.0
33	1.038882375	-0.3271433413	-0.1608109176	-175.8613434	-20.15596771	60.31667709	1.0
[aug_lied_O_R]
31	1.039044976	0.326115787	-0.1618431658	175.7657928	-20.31324005	-60.31218338	1.0
32	1.039044976	0.326115787	-0.1618431658	175.7657928	-20.31324005	-60.31218338	1.0
33	1.039044976	0.326115787	-0.1618431658	175.7657928	-20.31324005	-60.31218338	1.0
[aug_lied_U_L]
31	1.02191329	-0.3312865198	-0.1338392347	-159.8099365	-28.7482872	60.17462158	1.0
32	1.02191329	-0.3312865198	-0.1338392347	-159.8099365	-28.7482872	60.17462158	1.0
33	1.02191329	-0.3312865198	-0.1338392347	-159.8099365	-28.7482872	60.17462158	1.0
[aug_lied_U_R]
31	1.022078872	0.3303525448	-0.1348842829	159.7071381	-28.90532303	-60.15359116	1.0
32	1.022078872	0.3303525448	-0.1348842829	159.7071381	-28.90532303	-60.15359116	1.0
33	1.022078872	0.3303525448	-0.1348842829	159.7071381	-28.90532303	-60.15359116	1.0
[Bauch_003]
31	1.276869178	9.429641068e-08	-0.6079563498	-3.842957085e-06	-137.6799469	1.008550771e-05	1.0
32	1.276869178	9.429641068e-08	-0.6079563498	-3.842957085e-06	-137.6799469	1.008550771e-05	1.0
33	1.276869178	9.429641068e-08	-0.6079563498	-3.842957085e-06	-137.6799469	1.008550771e-05	1.0
[Schalterplatte_L]
31	1.025813699	-0.3978532553	0.122958377	-15.09757614	74.30728149	-42.06105804	1.0
32	0.9909337163	-0.3949345946	0.09879568219	-24.9200058	76.1135025	-52.17749023	1.0
33	0.9584332705	-0.392015934	0.07463299483	-38.87641144	77.51216888	-66.46440887	1.0
[Oberarm_L]
31	1.418636799	1.443549991e-07	9.778887033e-08	-92.10979462	-65.55809784	110.3295288	1.0
32	1.418636799	1.443549991e-07	9.778887033e-08	-99.65123749	-64.85227966	119.1337738	1.0
33	1.418636799	1.443549991e-07	9.778887033e-08	-105.3555984	-63.99063492	125.8500443	1.0
[Unterarm_L]
31	2.028227329	8.847563748e-08	-3.725290298e-07	9.232122421	58.86884689	9.958911896	1.0
32	2.028227329	8.847563748e-08	-3.725290298e-07	11.08535385	60.7713623	12.22175884	1.0
33	2.028227329	8.847563748e-08	-3.725290298e-07	12.62329292	61.86079025	14.34655666	1.0
[Vorderpfote_L]
31	1.705947638	1.746229827e-07	-5.704351125e-08	-18.87883186	55.25751114	-13.61934948	1.0
32	1.705947638	1.746229827e-07	-5.704351125e-08	-19.87782097	39.60676193	-12.31794071	1.0
33	1.705947638	1.746229827e-07	-5.704351125e-08	-21.17668724	23.68255043	-10.76036644	1.0
[Schalterplatte_R]
31	0.9550750256	0.3828080297	-0.08551250398	22.58969498	76.12320709	50.52384186	1.0
32	0.9422467947	0.3828496337	-0.07069733739	17.61134529	74.57052612	45.393116	1.0
33	0.9294185042	0.3828912377	-0.05588216707	13.51563931	72.94711304	41.14764786	1.0
[Oberarm_R]
31	1.418636322	-1.210719205e-07	-7.450580597e-08	44.28226089	-52.90749359	-51.13655853	1.0
32	1.418636322	-1.210719205e-07	-7.450580597e-08	45.20399094	-53.36827469	-52.41034317	1.0
33	1.418636322	-1.210719205e-07	-7.450580597e-08	46.17055511	-53.8269043	-53.72826767	1.0
[Unterarm_R]
31	2.028231859	1.676380634e-07	-3.608874977e-07	0.2403008938	44.07962799	0.5608062744	1.0
32	2.028231859	1.676380634e-07	-3.608874977e-07	0.08590936661	43.10926056	0.378108561	1.0
33	2.028231859	1.676380634e-07	-3.608874977e-07	-0.05962441489	42.1024971	0.2006568462	1.0
[Vorderpfote_R]
31	1.705937624	7.799826562e-08	1.461012289e-07	3.330817461	74.73164368	2.911263227	1.0
32	1.705937624	7.799826562e-08	1.461012289e-07	3.789174795	76.8980484	3.386559486	1.0
33	1.705937624	7.799826562e-08	1.461012289e-07	4.152733803	78.41822815	3.761585951	1.0
[Schwanz]
31	-0.1374606788	-1.382431947e-08	0.086761415	-2.220226997e-05	-115.3913574	2.181978562e-05	1.0
32	-0.1257643104	-1.382431947e-08	0.08059184998	-2.220226997e-05	-116.7756729	2.181978562e-05	1.0
33	-0.1140679494	-1.382431947e-08	0.07442229241	-2.220226997e-05	-118.0838623	2.181978562e-05	1.0
[Schwanz_001]
31	0.9104328156	6.868503988e-08	7.788912626e-08	-2.408194405e-06	9.684153557	-5.75290926e-07	1.0
32	0.9104328156	6.868503988e-08	7.788912626e-08	-2.408194405e-06	11.57222843	-5.75290926e-07	1.0
33	0.9104328156	6.868503988e-08	7.788912626e-08	-2.408194405e-06	13.35623932	-5.75290926e-07	1.0
[Schwanz_002]
31	0.7855660319	5.704351125e-08	-1.185253495e-07	8.174235973e-07	-7.854751587	-1.362372615e-07	1.0
32	0.7855660319	5.704351125e-08	-1.185253495e-07	8.174235973e-07	-6.489682198	-1.362372615e-07	1.0
33	0.7855660319	5.704351125e-08	-1.185253495e-07	8.174235973e-07	-5.199672699	-1.362372615e-07	1.0
[Schwanz_003]
31	0.8350355029	6.286426668e-08	-2.072192729e-07	-2.187832479e-06	-2.373827219	1.867661581e-07	1.0
32	0.8350355029	6.286426668e-08	-2.072192729e-07	-2.187832479e-06	-3.09569931	1.867661581e-07	1.0
33	0.8350355029	6.286426668e-08	-2.072192729e-07	-2.187832479e-06	-3.777950287	1.867661581e-07	1.0
[Oberschenkel_L]
31	0.6250858307	-0.5836999416	0.1054054126	-165.3056641	-120.4854126	170.8239288	1.0
32	0.6532589197	-0.5836999416	0.09952004254	-164.2060242	-117.3815842	169.5728912	1.0
33	0.6798145175	-0.5836999416	0.09363465756	-162.6339722	-113.9869995	167.8365631	1.0
[Unterschenkel_L]
31	1.686439037	6.984918599e-08	-6.053597446e-08	-17.4040451	-43.84866714	27.53210068	1.0
32	1.686439037	6.984918599e-08	-6.053597446e-08	-16.38507462	-42.36602402	26.40551758	1.0
33	1.686439037	6.984918599e-08	-6.053597446e-08	-15.23020554	-40.34026718	25.05418777	1.0
[Pfote1_L]
31	1.190900326	6.519258022e-08	1.396983862e-07	2.086117744	35.48111343	-6.228179932	1.0
32	1.190900326	6.519258022e-08	1.396983862e-07	2.096495152	35.30694199	-6.210252762	1.0
33	1.190900326	6.519258022e-08	1.396983862e-07	2.126678944	34.78863907	-6.157514095	1.0
[Pfote2_L]
31	0.9876257777	7.450580597e-08	-5.587935092e-08	-11.85918236	82.10009003	-18.74569702	1.0
32	0.9876257777	7.450580597e-08	-5.587935092e-08	-13.83049297	83.72258759	-20.61911774	1.0
33	0.9876257777	7.450580597e-08	-5.587935092e-08	-17.47186089	85.42895508	-24.12108231	1.0
[Oberschenkel_R]
31	0.4514050186	0.5837000012	0.04795014486	-22.947052	-73.49786377	18.10516739	1.0
32	0.4564223886	0.5837000012	0.01828485914	-18.91452789	-68.46172333	13.83009434	1.0
33	0.4629036188	0.5837000012	-0.01008603815	-16.31282616	-63.6144371	10.99398994	1.0
[Unterschenkel_R]
31	1.68644917	1.164153218e-07	2.793967901e-08	23.38250923	-60.48385239	-29.84775543	1.0
32	1.68644917	1.164153218e-07	2.793967901e-08	29.76451874	-65.27709961	-36.62469482	1.0
33	1.68644917	1.164153218e-07	2.793967901e-08	37.35476685	-68.99815369	-44.64939499	1.0
[Pfote1_R]
31	1.190900087	1.856824383e-07	4.190951941e-08	-1.963628531	26.26382446	6.506169796	1.0
32	1.190900087	1.856824383e-07	4.190951941e-08	-2.008149147	27.65953445	6.408568859	1.0
33	1.190900087	1.856824383e-07	4.190951941e-08	-2.052955151	28.9769001	6.314300537	1.0
[Pfote2_R]
31	0.9876258373	6.984919754e-09	6.635672634e-08	28.99029732	82.7963562	33.24204254	1.0
32	0.9876258373	6.984919754e-09	6.635672634e-08	41.28450775	83.83177185	45.85984039	1.0
33	0.9876258373	6.984919754e-09	6.635672634e-08	53.349617	84.3447876	58.2492218	1.0
[EndOfFile]
